# xmcd
#
# Track frame offsets: 
#        150
#        17935
#        37428
#        53432
#        67837
#        81045
#        104030
#        110205
#        125075
#        135758
#        149491
#        155737
#        169557
#        185210
#        197306
#        223627
#        244619
#
# Disc length: 3420 seconds
#
# Revision: 0
# Processed by: cddbd v1.5.2PL0 Copyright (c) Steve Scherf et al.
# Submitted via: ExactAudioCopy v1.3
#
DISCID=fa0d5a11
DTITLE=Gerry Joe Weise - Bushman Boogie
DYEAR=1998
DGENRE=Blues Rock, Chicago Blues
TTITLE0=Dreamtime Shuffle
TTITLE1=Broken Hill Blues
TTITLE2=Katoomba Express
TTITLE3=Gerry Joe's Houserocker
TTITLE4=Last Train To Adelaide
TTITLE5=58 Day Road
TTITLE6=Boomerang
TTITLE7=Bushgirl Blues
TTITLE8=Bushman Boogie
TTITLE9=Goin' Home To You
TTITLE10=Yamma Yamma
TTITLE11=Yidaki Soul Power
TTITLE12=Kiama Beach Jamboree
TTITLE13=Corroboree
TTITLE14=Long Ago
TTITLE15=Rainbow Serpent Dreaming
TTITLE16=Initiation
EXTD=
EXTT0=
EXTT1=
EXTT2=
EXTT3=
EXTT4=
EXTT5=
EXTT6=
EXTT7=
EXTT8=
EXTT9=
EXTT10=
EXTT11=
EXTT12=
EXTT13=
EXTT14=
EXTT15=
EXTT16=
PLAYORDER=
